<?xml version="1.0" standalone="no"?>
<!DOCTYPE svg PUBLIC "-//W3C//DTD SVG 20010904//EN"
 "http://www.w3.org/TR/2001/REC-SVG-20010904/DTD/svg10.dtd">
<svg version="1.0" xmlns="http://www.w3.org/2000/svg"
 width="1080.000000pt" height="1080.000000pt" viewBox="0 0 1080.000000 1080.000000"
 preserveAspectRatio="xMidYMid meet">
<metadata>
Created by potrace 1.14, written by Peter Selinger 2001-2017
</metadata>
<g transform="translate(0.000000,1080.000000) scale(0.100000,-0.100000)"
fill="#000000" stroke="none">
<path d="M5421 10066 c-9 -10 -15 -48 -16 -104 -1 -48 -5 -139 -9 -202 -3 -63
-8 -190 -11 -282 l-4 -168 98 0 98 0 7 77 c3 42 6 97 6 123 0 25 5 51 12 58 8
8 45 12 100 12 107 0 139 14 170 73 45 88 34 298 -21 359 -32 37 -106 55 -120
30 -7 -13 -10 -12 -15 4 -5 15 -15 20 -48 19 -24 0 -86 4 -138 9 -83 7 -98 6
-109 -8z m306 -108 c-3 -7 -5 -2 -5 12 0 14 2 19 5 13 2 -7 2 -19 0 -25z m-47
-46 c67 -54 22 -209 -59 -200 l-26 3 4 95 c2 52 8 101 13 108 15 17 42 15 68
-6z m160 -257 c0 -18 -5 -25 -18 -25 -28 0 -34 11 -15 32 22 25 33 23 33 -7z"/>
<path d="M4946 10034 c-60 -8 -111 -16 -113 -18 -3 -3 -45 -490 -58 -678 -6
-80 -4 -98 7 -98 17 0 54 24 96 63 l32 31 0 -43 c0 -35 3 -42 16 -37 9 3 20 6
25 6 5 0 9 18 9 40 0 28 -4 38 -13 34 -10 -3 -12 5 -9 31 2 19 8 32 13 29 5
-3 9 10 9 28 l0 33 67 3 c68 2 103 -13 103 -44 0 -22 53 -64 72 -58 13 4 18 0
18 -13 0 -11 5 -24 12 -31 17 -17 58 -15 58 3 0 21 18 19 22 -2 3 -13 6 -15
11 -6 5 8 -1 22 -15 37 -13 13 -24 30 -26 37 -2 8 -10 21 -19 31 -13 14 -13
17 2 26 15 8 10 30 -53 208 -39 109 -86 244 -105 299 -19 54 -38 100 -43 101
-5 1 -58 -5 -118 -12z m71 -304 c18 -68 30 -127 27 -132 -6 -10 -61 -11 -67 0
-3 4 -8 65 -12 136 -9 166 7 165 52 -4z m-40 -195 c22 -19 24 -24 11 -25 -10
0 -18 -5 -18 -11 0 -5 -5 -7 -10 -4 -6 4 -8 15 -5 26 5 15 1 19 -19 19 -14 0
-26 5 -26 10 0 19 39 10 67 -15z m-38 -52 c10 -33 1 -77 -12 -57 -5 8 -10 69
-8 87 2 17 11 5 20 -30z m235 -49 c16 -16 21 -34 9 -34 -10 0 -43 32 -43 42 0
13 17 9 34 -8z m55 -41 c-15 -18 -34 -1 -25 22 5 14 9 15 21 5 12 -10 13 -16
4 -27z m-419 -63 c0 -5 -4 -10 -10 -10 -5 0 -10 5 -10 10 0 6 5 10 10 10 6 0
10 -4 10 -10z m465 0 c3 -5 -1 -10 -9 -10 -9 0 -16 5 -16 10 0 6 4 10 9 10 6
0 13 -4 16 -10z m-475 -60 c0 -5 -2 -10 -4 -10 -3 0 -8 5 -11 10 -3 6 -1 10 4
10 6 0 11 -4 11 -10z"/>
<path d="M6075 10008 c-10 -49 -46 -251 -70 -398 -14 -85 -27 -166 -30 -180
-2 -14 -7 -53 -11 -86 l-7 -62 71 -12 c108 -18 104 -22 124 110 10 63 21 130
24 149 l5 34 57 -7 c31 -4 61 -11 66 -16 8 -8 -19 -200 -40 -286 -5 -19 0 -23
43 -32 26 -6 69 -13 94 -17 l46 -7 17 109 c10 59 34 200 53 313 40 239 53 323
49 327 -8 8 -161 32 -167 25 -4 -4 -18 -63 -30 -132 -12 -69 -25 -130 -30
-136 -11 -13 -129 5 -129 20 1 6 12 70 25 141 13 72 20 133 17 136 -9 8 -118
29 -148 29 -16 0 -25 -7 -29 -22z"/>
<path d="M4480 9950 c-8 -5 -25 -10 -38 -10 -31 0 -331 -87 -347 -100 -11 -9
-11 -20 2 -63 21 -74 28 -79 85 -62 39 11 50 12 61 1 7 -7 32 -82 55 -167 56
-199 50 -185 64 -171 7 7 20 12 30 12 11 0 18 7 18 19 0 25 20 31 40 12 22
-22 6 -61 -26 -61 -17 0 -21 -5 -17 -19 3 -10 0 -22 -6 -25 -6 -4 -11 -2 -11
3 0 6 -5 11 -10 11 -6 0 -4 -16 5 -37 9 -21 14 -47 11 -58 -4 -14 2 -27 16
-39 16 -14 18 -20 8 -26 -11 -7 -11 -11 -1 -23 11 -14 16 -14 46 -1 19 8 44
14 55 14 11 0 30 6 43 13 12 6 23 12 24 13 4 1 -46 173 -69 237 -20 56 -32 69
-41 45 -2 -7 -8 -10 -12 -5 -5 4 -1 23 8 42 16 33 15 37 -19 137 -19 57 -33
112 -32 123 2 14 18 24 58 35 61 18 60 15 32 105 -14 44 -20 53 -32 45z m-10
-418 c0 -18 -18 -42 -31 -42 -4 0 -2 14 4 30 13 33 27 40 27 12z m-100 -82 c0
-5 -4 -10 -10 -10 -5 0 -10 5 -10 10 0 6 5 10 10 10 6 0 10 -4 10 -10z"/>
<path d="M6781 9888 c-5 -13 -47 -121 -94 -240 -47 -119 -89 -234 -92 -255 -4
-21 -16 -50 -26 -65 -11 -15 -22 -42 -26 -60 -3 -18 -10 -38 -15 -45 -14 -18
38 -46 141 -78 47 -15 97 -32 110 -38 19 -9 25 -8 35 6 14 18 28 13 20 -8 -8
-20 58 -36 101 -24 106 30 214 303 156 395 -15 24 -40 40 -102 65 -51 22 -85
42 -91 55 -7 16 1 46 35 132 25 62 42 114 38 116 -15 10 -162 66 -172 66 -5 0
-13 -10 -18 -22z m103 -453 c64 -59 -6 -215 -85 -190 -38 12 -40 38 -8 120 16
43 32 82 35 86 9 16 30 10 58 -16z m187 15 c16 -9 17 -14 8 -32 -11 -21 -12
-21 -25 -3 -14 19 -19 45 -8 45 3 0 14 -5 25 -10z m-211 -269 c0 -6 -4 -13
-10 -16 -5 -3 -10 1 -10 9 0 9 5 16 10 16 6 0 10 -4 10 -9z"/>
<path d="M3816 9722 l-79 -36 7 -126 c9 -169 13 -189 37 -183 25 7 24 -13 -1
-29 -30 -19 -25 -46 7 -50 l28 -3 -25 -24 c-25 -23 -25 -23 -2 -16 26 8 44
-21 21 -35 -7 -5 -13 -21 -14 -37 0 -21 -5 -28 -19 -28 -16 0 -27 23 -61 125
-24 69 -52 146 -63 173 -27 61 -72 127 -72 105 0 -9 -7 -19 -16 -22 -24 -9
-25 -8 -18 18 9 39 -21 49 -63 20 -18 -12 -38 -24 -44 -26 -12 -4 0 -32 51
-128 17 -30 30 -60 30 -67 0 -8 41 -105 91 -216 51 -111 100 -221 110 -245
l18 -42 58 26 c32 14 72 32 89 40 22 9 33 22 37 41 5 28 -9 257 -21 348 -7 47
-9 50 -40 53 -41 4 -44 32 -3 32 28 0 29 1 24 41 -9 63 16 46 40 -27 11 -32
23 -61 27 -64 4 -3 10 -22 13 -42 3 -20 16 -58 28 -85 l22 -48 9 43 c6 27 15
42 25 42 10 0 13 -6 9 -16 -4 -9 -11 -37 -18 -61 -10 -41 -8 -50 17 -104 16
-32 33 -59 37 -59 5 0 22 7 38 15 17 9 32 15 35 15 11 -1 65 31 65 38 0 4 -69
159 -152 344 -106 235 -157 338 -168 337 -8 0 -50 -17 -94 -37z m54 -212 c0
-5 -5 -10 -11 -10 -5 0 -7 5 -4 10 3 6 8 10 11 10 2 0 4 -4 4 -10z m-320 -34
c0 -30 -27 -55 -35 -34 -8 20 13 71 25 63 5 -3 10 -17 10 -29z m60 -2 c0 -13
-4 -24 -9 -24 -13 0 -24 37 -16 50 10 16 25 1 25 -26z m240 -45 c0 -5 -4 -9
-10 -9 -5 0 -10 7 -10 16 0 8 5 12 10 9 6 -3 10 -10 10 -16z m142 -74 c0 -5
-5 -11 -11 -13 -6 -2 -11 4 -11 13 0 9 5 15 11 13 6 -2 11 -8 11 -13z m-122
-40 c0 -8 -2 -15 -4 -15 -2 0 -6 7 -10 15 -3 8 -1 15 4 15 6 0 10 -7 10 -15z
m218 -133 c2 -7 -3 -12 -12 -12 -9 0 -16 7 -16 16 0 17 22 14 28 -4z m-211
-24 c-3 -8 -6 -5 -6 6 -1 11 2 17 5 13 3 -3 4 -12 1 -19z m-147 2 c0 -5 -7
-10 -16 -10 -8 0 -12 5 -9 10 3 6 10 10 16 10 5 0 9 -4 9 -10z m415 -16 c28
-29 5 -54 -28 -30 -10 8 -15 20 -11 30 8 20 18 20 39 0z m-250 -14 c3 -5 2
-10 -4 -10 -5 0 -13 5 -16 10 -3 6 -2 10 4 10 5 0 13 -4 16 -10z m255 -64 c0
-3 -4 -8 -10 -11 -5 -3 -10 -1 -10 4 0 6 5 11 10 11 6 0 10 -2 10 -4z"/>
<path d="M7304 9698 c-3 -5 -41 -98 -84 -206 -58 -147 -74 -198 -64 -200 21
-5 17 -18 -11 -39 -15 -11 -39 -55 -64 -115 l-40 -98 25 0 c40 0 89 25 116 60
24 31 56 35 44 5 -2 -7 2 -16 10 -19 16 -6 44 51 44 89 0 13 15 52 33 87 35
68 161 378 155 382 -21 16 -160 61 -164 54z m34 -256 c2 -7 -2 -10 -12 -6 -9
3 -16 11 -16 16 0 13 23 5 28 -10z m-73 -232 c3 -5 -1 -10 -9 -10 -8 0 -18 5
-21 10 -3 6 1 10 9 10 8 0 18 -4 21 -10z"/>
<path d="M3570 9596 c0 -9 5 -16 10 -16 6 0 10 4 10 9 0 6 -4 13 -10 16 -5 3
-10 -1 -10 -9z"/>
<path d="M7819 9545 c-13 -24 -21 -46 -19 -48 3 -2 52 -34 110 -70 l105 -67
27 32 c15 18 28 38 28 45 0 6 -21 23 -47 38 -44 27 -47 27 -60 9 -12 -16 -10
-20 17 -37 30 -19 39 -37 19 -37 -20 0 -148 84 -149 98 0 15 5 15 32 1 16 -9
24 -8 36 5 18 17 12 23 -49 60 -26 15 -27 15 -50 -29z"/>
<path d="M7625 9488 c-14 -29 -39 -71 -55 -93 -41 -57 -310 -472 -315 -487 -5
-14 136 -108 162 -108 20 0 98 53 226 155 84 67 107 90 102 103 -16 38 -17 52
-4 52 8 0 20 -9 27 -21 13 -21 13 -21 37 5 25 27 45 34 45 15 0 -12 -54 -87
-111 -152 -19 -23 -46 -57 -59 -76 l-24 -34 25 6 c13 4 35 10 48 13 18 5 22 3
19 -7 -2 -7 -28 -20 -56 -29 -45 -13 -57 -22 -87 -67 -40 -60 -42 -69 -16 -83
11 -5 25 -16 33 -22 18 -17 79 -51 83 -46 1 1 94 145 205 318 l202 314 -26 21
c-14 11 -52 37 -85 57 l-60 37 -113 -85 c-140 -106 -135 -101 -120 -116 22
-22 13 -28 -30 -22 -38 7 -41 5 -34 -12 14 -35 11 -39 -19 -36 -21 2 -26 0
-16 -7 19 -13 6 -45 -15 -37 -9 4 -27 0 -39 -8 -20 -13 -25 -13 -35 -1 -10 12
1 32 62 107 90 113 127 167 162 236 14 28 31 52 36 52 6 0 10 5 10 12 0 6 -11
1 -25 -12 -24 -23 -26 -23 -43 -7 -16 17 -16 18 6 23 28 8 32 54 5 54 -10 0
-29 9 -43 20 -14 11 -28 20 -32 20 -3 0 -18 -24 -33 -52z m46 -80 c-29 -23
-54 -23 -49 -1 3 17 45 34 62 25 5 -3 -1 -13 -13 -24z m42 -25 c9 -9 -23 -44
-34 -37 -5 3 -3 14 4 24 13 21 20 24 30 13z m157 -234 c0 -6 -4 -7 -10 -4 -5
3 -10 11 -10 16 0 6 5 7 10 4 6 -3 10 -11 10 -16z m-78 -21 c-7 -7 -12 -8 -12
-2 0 14 12 26 19 19 2 -3 -1 -11 -7 -17z m-297 -38 c3 -5 1 -10 -4 -10 -6 0
-11 5 -11 10 0 6 2 10 4 10 3 0 8 -4 11 -10z m220 -40 c-3 -5 -11 -10 -16 -10
-6 0 -7 5 -4 10 3 6 11 10 16 10 6 0 7 -4 4 -10z m97 -75 c0 -5 -5 -11 -11
-13 -6 -2 -11 4 -11 13 0 9 5 15 11 13 6 -2 11 -8 11 -13z m-212 -15 c0 -5 -7
-10 -16 -10 -8 0 -12 5 -9 10 3 6 10 10 16 10 5 0 9 -4 9 -10z m-30 -31 c0 -6
-4 -7 -10 -4 -5 3 -10 11 -10 16 0 6 5 7 10 4 6 -3 10 -11 10 -16z m150 -130
c0 -5 -7 -9 -15 -9 -15 0 -20 12 -9 23 8 8 24 -1 24 -14z m-7 -61 c6 -20 -19
-51 -34 -43 -9 6 -13 48 -4 57 12 11 34 3 38 -14z m-58 -58 c3 -5 2 -10 -4
-10 -5 0 -13 5 -16 10 -3 6 -2 10 4 10 5 0 13 -4 16 -10z"/>
<path d="M3257 9448 c-9 -7 -21 -26 -27 -41 -9 -25 -14 -28 -40 -22 -22 5 -32
3 -36 -8 -3 -8 -16 -18 -30 -21 -23 -6 -34 -26 -14 -26 11 0 14 -33 4 -43 -9
-9 -34 4 -34 18 0 8 -8 11 -20 8 -11 -3 -20 -9 -20 -14 0 -11 -56 -40 -63 -32
-4 3 -9 -1 -13 -10 -5 -15 82 -157 107 -173 6 -3 21 -27 33 -53 11 -25 48 -88
80 -139 49 -77 61 -90 73 -80 12 10 18 9 29 -7 19 -25 18 -45 -2 -45 -11 0 -6
-12 19 -42 19 -24 41 -58 49 -76 l13 -32 50 34 c28 18 57 41 64 50 7 9 20 16
27 16 23 0 16 14 -31 63 -24 26 -54 65 -65 86 -11 22 -64 109 -118 193 -54 84
-101 161 -105 171 -9 23 2 45 13 27 5 -9 29 2 84 36 42 27 76 52 76 57 0 11
-72 117 -80 117 -3 0 -14 -6 -23 -12z m-51 -464 c-5 -14 -9 -15 -19 -5 -9 9
-9 14 3 21 18 11 24 6 16 -16z m28 -40 c18 -7 22 -39 6 -49 -5 -3 -10 1 -10
10 0 8 -7 18 -15 21 -16 7 -21 24 -6 24 5 0 16 -3 25 -6z"/>
<path d="M5140 9353 c0 -7 7 -19 17 -28 13 -14 14 -18 2 -25 -19 -12 -8 -20
19 -13 29 7 28 14 -8 48 -16 16 -30 24 -30 18z"/>
<path d="M4875 9260 c-3 -5 -1 -10 4 -10 6 0 11 5 11 10 0 6 -2 10 -4 10 -3 0
-8 -4 -11 -10z"/>
<path d="M5360 9063 c-209 -12 -633 -74 -683 -100 -17 -8 -85 -55 -152 -104
-68 -49 -126 -89 -129 -89 -6 0 23 40 98 139 25 32 -45 -16 -133 -92 -126
-109 -146 -117 -307 -117 l-130 0 -99 -51 c-55 -28 -144 -78 -200 -111 -104
-63 -359 -241 -370 -258 -14 -22 -23 -7 -34 52 -14 81 -54 145 -115 182 -40
25 -51 28 -67 18 -16 -10 -19 -9 -19 3 0 24 -57 20 -65 -5 -7 -22 -25 -27 -25
-7 -1 6 -7 0 -15 -14 -8 -15 -30 -36 -50 -48 -19 -11 -35 -26 -35 -32 0 -7 -3
-10 -6 -7 -3 3 4 24 15 47 12 22 21 43 21 46 0 12 -31 4 -36 -10 -4 -8 -12
-15 -18 -15 -21 0 -53 -42 -82 -104 -23 -51 -26 -68 -22 -130 3 -41 14 -91 25
-118 24 -53 14 -67 -32 -46 -19 8 -31 8 -50 0 -36 -17 -37 -62 -2 -99 40 -44
104 -17 93 38 -6 30 15 47 32 26 30 -40 82 -138 77 -146 -3 -6 -17 -3 -34 7
-27 15 -30 15 -55 -1 -29 -19 -34 -51 -12 -82 13 -19 6 -29 -75 -130 -227
-280 -396 -559 -537 -890 -57 -133 -145 -390 -173 -502 l-13 -53 -163 0 -163
0 0 -25 c0 -24 -36 -72 -47 -61 -3 3 4 20 16 39 11 19 21 37 21 41 0 3 -27 6
-59 6 -43 0 -70 -6 -95 -21 -20 -12 -36 -24 -36 -28 0 -10 56 -140 63 -148 4
-3 7 7 8 23 0 16 4 38 9 49 7 17 9 16 10 -10 1 -27 2 -28 14 -12 12 16 14 16
20 1 3 -8 6 -39 6 -67 l1 -52 25 48 c47 91 43 47 -6 -64 l-30 -65 27 -68 27
-69 14 34 c30 78 29 77 40 47 12 -29 -2 -103 -17 -93 -28 17 -9 -54 55 -212
l73 -180 -144 -356 c-80 -195 -145 -368 -144 -384 0 -25 1 -26 10 -8 9 21 3
-60 -8 -94 -3 -9 4 -5 17 9 l21 25 -21 -42 c-19 -40 -19 -43 -3 -43 10 0 29
15 42 33 l23 32 -6 -32 -5 -33 180 -2 180 -3 -41 -55 c-51 -68 -133 -235 -155
-315 -26 -94 -31 -283 -10 -389 15 -84 82 -286 94 -286 4 0 15 21 25 47 11 26
21 42 23 36 3 -7 -1 -21 -7 -32 -12 -23 -1 -28 19 -9 15 14 15 13 -5 -37 -7
-18 -6 -18 9 -6 16 13 16 11 0 -31 -9 -26 -13 -55 -10 -70 24 -94 524 -664
745 -849 109 -90 212 -167 233 -171 8 -2 18 -8 24 -15 5 -6 35 -25 67 -42 l56
-32 36 59 c40 67 43 77 20 86 -19 7 -34 -1 -34 -19 0 -8 -5 -17 -11 -21 -11
-6 -8 10 9 55 4 10 0 13 -16 9 -15 -4 -22 -2 -22 8 0 20 -17 18 -29 -3 -8 -13
-10 -14 -11 -4 0 10 -11 5 -32 -15 -24 -23 -29 -25 -24 -9 31 80 31 78 5 94
-152 100 -401 337 -634 605 -170 195 -229 277 -285 391 -227 469 -126 831 319
1145 201 142 325 206 499 256 48 14 128 43 177 65 50 22 95 42 100 45 6 3 9
-48 7 -143 -2 -114 1 -174 17 -263 l20 -115 -44 -45 c-57 -58 -84 -120 -85
-189 l0 -54 22 19 c12 10 18 13 14 7 -12 -22 13 -14 26 7 7 11 18 20 25 20 7
0 13 5 13 12 0 6 3 8 6 5 4 -3 -12 -38 -36 -78 -37 -63 -41 -74 -30 -94 21
-40 110 -145 123 -145 6 0 29 17 52 37 l40 38 -43 -46 -42 -45 30 -29 30 -29
25 24 c14 13 25 20 25 16 0 -4 -10 -16 -22 -26 l-23 -18 29 -31 c17 -17 33
-31 36 -31 4 0 38 28 76 61 l69 62 -67 -68 c-38 -37 -68 -70 -68 -74 0 -4 13
-19 28 -34 l28 -27 68 62 67 63 -57 77 -58 78 -33 -32 c-18 -18 -33 -29 -33
-25 0 4 14 20 31 35 27 24 30 31 20 48 -10 15 -9 27 4 57 8 21 19 35 24 33 5
-3 14 1 21 9 9 11 10 18 1 29 -9 10 -9 21 1 42 16 39 16 38 31 26 11 -9 19 -6
37 13 13 14 28 25 34 25 6 0 -4 -12 -22 -26 l-33 -26 26 -33 c21 -28 25 -44
25 -98 0 -48 -4 -66 -15 -71 -19 -7 -19 -35 0 -42 11 -5 15 -22 15 -70 0 -35
-4 -63 -8 -61 -5 1 -37 -24 -72 -57 -66 -60 -69 -73 -27 -100 13 -9 26 -2 64
34 l48 45 -48 -51 c-46 -49 -47 -51 -29 -67 17 -16 20 -16 42 8 13 14 25 23
28 20 2 -2 -8 -15 -24 -28 l-28 -25 37 -41 c26 -29 37 -50 37 -72 0 -52 39
-223 71 -316 17 -48 56 -137 86 -197 38 -76 56 -124 59 -159 7 -92 68 -177
125 -177 9 0 24 -11 33 -24 16 -25 15 -26 -59 -90 -200 -174 -368 -243 -534
-217 -95 15 -94 15 -114 -19 -10 -16 -23 -30 -28 -30 -6 0 -1 13 11 30 12 16
18 34 15 40 -9 15 -35 12 -41 -5 -4 -8 -11 -15 -16 -15 -6 0 -5 7 3 16 10 13
10 17 -2 25 -10 6 -16 2 -22 -14 -22 -57 -42 -90 -45 -74 -5 24 -17 21 -30 -8
-11 -23 -9 -26 25 -40 114 -48 176 -60 303 -59 111 1 135 4 216 31 l91 30 39
-24 c99 -62 215 -113 239 -107 14 3 53 31 87 61 51 46 110 83 132 83 18 0 36
-37 36 -73 0 -49 13 -78 23 -53 11 28 30 18 23 -11 l-7 -28 27 28 c16 18 30
25 36 19 11 -11 13 -58 4 -92 -6 -20 -1 -17 29 17 20 24 41 43 47 43 10 0 5
-59 -8 -93 -7 -19 56 -90 108 -123 69 -44 468 -129 713 -153 162 -16 441 -25
448 -14 5 7 67 294 67 308 0 3 -15 5 -34 5 -43 0 -69 -37 -90 -128 -15 -66
-53 -129 -67 -115 -8 8 9 88 47 219 5 20 2 21 -158 27 -268 10 -536 54 -803
133 l-123 36 -34 92 c-18 50 -34 94 -36 98 -2 3 46 -11 107 -33 146 -51 403
-113 576 -139 84 -13 218 -24 336 -27 l195 -6 27 76 c15 41 27 77 27 79 0 3
-91 8 -202 12 -112 4 -243 13 -293 19 l-89 12 -213 335 c-190 299 -213 340
-213 378 0 28 4 42 13 42 7 0 67 -20 132 -46 193 -73 464 -161 548 -179 105
-21 171 -9 302 55 176 85 348 222 598 474 l159 160 28 -34 c59 -71 58 -47 7
-463 -25 -209 -44 -383 -42 -386 3 -2 29 20 59 50 57 60 131 164 190 271 21
38 39 68 41 68 1 0 13 -28 25 -63 34 -90 101 -221 154 -301 26 -38 43 -73 39
-77 -14 -13 -211 -97 -327 -140 -129 -48 -366 -110 -516 -135 -58 -9 -106 -18
-108 -19 -4 -3 -30 -160 -26 -164 8 -9 239 32 390 69 202 50 356 103 553 190
l154 69 20 -25 c12 -16 25 -23 37 -19 15 5 17 2 13 -16 -4 -12 -2 -20 3 -16 5
3 15 -6 21 -19 11 -24 9 -26 -79 -70 -297 -149 -699 -273 -1018 -313 -153 -20
-146 -17 -164 -63 -20 -49 -28 -47 -17 5 8 34 7 37 -14 37 -12 0 -37 -3 -55
-6 -36 -8 -43 -21 -64 -123 -8 -37 -26 -95 -40 -129 -14 -34 -26 -63 -26 -65
0 -3 33 -3 73 0 543 30 1015 152 1471 380 82 40 169 86 193 100 l44 25 57 -25
c61 -27 166 -57 202 -57 12 0 42 14 67 30 43 29 63 31 63 8 0 -6 -7 -20 -17
-30 -15 -17 -13 -18 63 -17 43 1 93 5 109 9 l30 8 -35 1 c-55 2 -69 17 -23 26
32 6 35 9 18 16 -11 4 -31 17 -45 28 -22 18 -22 21 -6 21 12 0 16 5 12 16 -3
9 -6 19 -6 23 0 5 -57 11 -127 14 -141 5 -202 21 -328 84 -249 125 -518 435
-640 739 -20 51 -42 100 -49 110 -11 15 -5 34 44 138 31 67 74 163 95 213 22
51 42 90 46 85 3 -4 39 -194 78 -422 40 -228 75 -422 78 -430 11 -34 98 204
159 438 20 76 37 138 39 140 1 1 18 -5 38 -13 48 -20 126 -19 179 2 26 11 43
13 45 6 2 -5 10 -18 17 -28 11 -16 15 -12 35 37 12 30 45 79 72 109 l50 54
-26 22 c-14 12 -25 25 -25 29 0 4 11 -3 25 -16 l26 -24 30 30 30 31 -40 36
c-54 49 -53 59 1 13 l42 -36 28 27 c15 15 28 32 28 37 0 6 -27 33 -60 59 -56
45 -67 57 -56 57 3 0 31 -22 62 -50 31 -27 61 -50 65 -50 4 0 19 14 34 31 l26
32 -38 31 c-21 17 -51 44 -68 60 -24 23 -22 22 14 -5 24 -19 56 -44 71 -56
l27 -22 24 25 24 26 -25 21 c-14 12 -43 37 -65 56 -22 18 -33 30 -25 25 8 -4
38 -27 66 -51 50 -42 51 -43 69 -23 15 17 16 22 4 37 -13 17 -13 17 4 3 17
-12 21 -12 35 7 158 197 313 280 618 328 174 27 215 44 257 105 38 55 11 116
-79 175 -131 87 -403 188 -729 270 -107 28 -206 59 -245 79 -58 29 -65 36 -68
65 l-3 32 39 -20 c21 -11 162 -58 313 -106 311 -97 447 -148 568 -211 248
-130 439 -309 539 -504 52 -100 66 -171 58 -281 -4 -68 -3 -89 8 -99 8 -6 19
-24 24 -40 9 -25 8 -29 -11 -34 -34 -9 -40 -7 -28 8 9 10 9 16 1 21 -14 9 -12
12 -39 -65 -51 -144 -161 -336 -289 -505 -69 -91 -360 -396 -534 -560 -82 -78
-118 -119 -122 -140 -4 -16 -14 -39 -23 -50 -15 -19 -15 -19 -9 7 3 14 9 34
13 43 6 16 4 16 -23 0 -16 -10 -39 -30 -51 -44 -13 -14 -23 -21 -23 -14 0 16
-139 -44 -170 -73 -23 -23 -23 -24 -4 -24 11 0 26 6 34 12 8 7 4 1 -10 -15
-18 -21 -21 -30 -12 -39 7 -7 12 -24 12 -38 0 -15 3 -29 6 -33 8 -8 68 14 77
29 4 7 14 11 21 8 17 -7 159 64 251 124 141 94 549 522 735 771 69 93 78 108
73 138 -5 28 -3 33 14 33 23 0 54 31 78 80 l18 35 -22 -20 c-17 -14 -26 -17
-39 -9 -12 8 -25 6 -50 -9 -18 -11 -35 -17 -37 -15 -8 8 64 86 85 93 11 4 20
11 20 16 0 16 -32 10 -46 -9 -13 -15 -13 -14 -5 8 22 61 61 134 61 115 1 -16
4 -13 15 10 11 24 14 26 15 10 1 -16 4 -14 15 10 14 29 14 27 9 -35 -6 -66
-13 -86 -21 -62 -3 6 -9 10 -14 6 -5 -3 -9 1 -9 8 0 7 -6 5 -12 -6 -9 -16 -7
-23 12 -38 26 -21 31 -22 52 -6 13 11 88 182 88 202 0 3 -17 6 -37 6 -33 1
-36 2 -18 12 49 27 56 38 39 70 -15 29 -15 29 6 18 12 -6 24 -9 28 -6 13 14
20 136 11 209 -20 164 -107 339 -238 478 l-73 79 185 0 c183 0 186 0 189 22 4
27 25 35 31 11 2 -10 4 34 4 97 l0 115 -24 -60 c-22 -57 -23 -58 -19 -20 2 22
7 56 10 75 4 19 -12 -18 -35 -83 -23 -65 -43 -116 -45 -114 -3 2 0 17 6 32 6
16 12 47 14 69 l4 41 -18 -40 c-10 -22 -30 -51 -46 -65 -19 -16 -23 -18 -13
-5 27 34 31 45 15 39 -13 -5 -15 0 -11 27 4 27 0 22 -24 -28 -17 -35 -35 -63
-41 -63 -7 0 -10 4 -8 9 14 37 132 280 135 278 1 -2 -6 -36 -18 -76 -11 -41
-18 -75 -16 -78 3 -2 15 21 28 51 12 31 27 56 31 56 5 0 4 -9 -2 -19 -5 -11
-10 -23 -10 -28 1 -14 49 81 50 97 0 8 -49 136 -109 284 l-110 269 110 270
c61 148 108 271 106 273 -3 3 -14 -7 -26 -22 -11 -15 -21 -23 -21 -19 0 4 -8
1 -17 -6 -10 -8 -5 3 11 24 34 47 29 60 -8 17 -30 -37 -36 -25 -6 13 11 14 20
28 20 32 0 4 10 19 21 33 21 27 21 27 14 3 -6 -19 -4 -23 8 -18 9 3 18 1 20
-6 9 -22 40 67 52 148 7 44 14 85 15 90 6 26 -1 55 -14 55 -15 0 -26 -42 -26
-97 0 -20 -4 -32 -10 -28 -6 4 -10 -11 -11 -37 0 -40 -1 -41 -11 -18 -10 24
-11 24 -24 -19 -16 -53 -39 -83 -28 -36 4 17 13 48 21 69 7 22 12 41 9 43 -9
9 -35 -67 -42 -122 -6 -48 -9 -55 -15 -35 -6 20 -7 21 -8 5 -1 -16 -3 -17 -10
-6 -8 12 -13 8 -28 -17 -10 -18 -21 -32 -26 -32 -4 0 11 33 33 73 40 74 53
114 28 89 -23 -23 -26 -12 -7 25 10 21 20 46 20 58 1 14 4 11 9 -10 l7 -30 9
35 8 35 7 -30 c6 -27 7 -25 8 15 1 30 4 40 10 31 7 -11 9 -11 14 0 3 8 6 1 7
-16 2 -30 2 -30 10 -5 20 63 31 60 -208 60 l-219 0 -13 57 c-16 75 -98 315
-144 428 -39 94 -167 354 -204 415 l-22 35 -6 -32 c-4 -23 -11 -31 -25 -30
-11 1 -17 6 -15 12 29 66 29 81 0 125 -27 41 -28 42 -37 19 -5 -13 -17 -42
-27 -64 l-19 -40 -2 60 c-1 33 0 69 1 80 2 20 1 20 -13 1 -13 -18 -14 -16 -21
23 -3 23 -3 53 0 66 5 20 -5 41 -52 103 -74 99 -129 166 -226 274 -84 93 -95
115 -50 103 93 -26 178 -22 247 11 46 21 99 83 113 133 24 80 8 201 -34 256
-15 20 -16 19 -50 -20 -31 -35 -35 -37 -29 -15 5 22 4 23 -7 8 -7 -9 -19 -25
-26 -35 -11 -16 -12 -16 -6 7 6 22 5 23 -10 11 -21 -17 -21 -16 10 58 14 35
24 64 22 66 -2 1 -18 7 -37 14 -48 16 -101 14 -101 -3 0 -19 -27 -28 -34 -10
-9 23 -62 16 -98 -13 -18 -15 -27 -21 -21 -12 10 12 10 18 1 27 -9 9 -8 19 5
41 17 29 17 29 -7 27 -16 -2 -23 2 -22 12 0 9 -10 18 -24 22 -22 5 -23 7 -6
13 10 4 16 10 13 13 -10 10 -66 -26 -72 -46 -10 -32 20 -70 54 -70 59 0 42
-26 -40 -65 -81 -38 -103 -39 -81 -5 14 24 16 66 2 75 -6 4 -8 -7 -4 -27 4
-25 3 -29 -5 -18 -6 8 -11 11 -11 5 0 -5 -5 -2 -11 8 -5 9 -17 17 -24 17 -8 0
-15 5 -15 10 0 6 9 10 20 10 11 0 20 4 20 10 0 12 -49 -6 -72 -27 -35 -31 -11
-86 38 -88 47 -3 37 -19 -30 -52 -52 -26 -66 -30 -75 -19 -6 8 -9 21 -5 30 3
9 -1 28 -11 42 -15 23 -22 26 -57 21 -36 -5 -47 0 -116 50 -128 91 -329 212
-487 293 -154 78 -385 180 -410 180 -9 0 -16 -17 -21 -47 l-7 -48 -10 35 -9
35 -15 -28 c-22 -42 -28 -25 -10 28 l16 46 -33 14 c-110 46 -517 147 -681 169
l-40 5 37 -12 c64 -21 59 -33 -12 -27 -54 4 -8 -12 57 -20 59 -7 53 -8 -47 -5
-100 3 -106 2 -47 -5 38 -5 71 -11 74 -13 2 -3 -40 -8 -94 -12 -141 -9 -150
-12 -43 -14 52 -2 115 -6 140 -11 32 -7 7 -8 -90 -6 -142 3 -153 0 -49 -13
l64 -8 -65 -3 -65 -3 75 -11 75 -11 -75 -6 -75 -5 70 -2 c86 -3 70 -21 -20
-23 -49 -1 -54 -3 -30 -9 19 -5 -13 -8 -90 -9 -74 0 -115 3 -106 8 11 7 9 10
-10 14 -17 3 -12 5 16 7 35 2 37 3 15 10 l-25 7 25 6 c14 4 41 8 60 10 19 2
-5 5 -55 6 -49 1 -99 6 -110 10 -17 7 -16 9 10 15 17 4 57 11 90 15 l60 8 -55
2 c-44 2 -50 5 -30 11 14 4 48 9 75 10 88 3 98 19 12 19 -49 1 -76 5 -72 11 3
6 21 11 38 12 18 1 1 4 -38 8 l-70 6 82 2 c92 2 128 22 40 22 -30 0 -70 3 -88
7 -34 8 -33 8 16 14 52 6 -153 8 -255 2z m1440 -294 c0 -27 -23 -99 -32 -99
-6 0 -7 10 -4 23 4 12 9 37 13 55 5 29 23 46 23 21z m-917 -34 c261 -28 503
-80 736 -160 72 -25 133 -45 135 -45 2 0 11 21 21 46 9 25 19 44 21 41 4 -3
-8 -47 -21 -78 -5 -12 4 -20 36 -33 23 -9 43 -15 45 -14 2 2 12 24 24 48 19
42 20 43 17 13 -5 -52 10 -28 27 45 19 74 36 112 36 77 0 -20 -12 -78 -31
-148 -8 -31 -14 -37 -29 -32 -10 3 -21 2 -24 -4 -3 -5 51 -37 122 -71 70 -33
163 -82 207 -107 97 -55 355 -225 355 -234 0 -10 -114 -57 -123 -52 -5 3 -1
13 7 22 19 21 21 62 4 79 -15 15 -53 15 -81 1 -28 -15 -37 -28 -37 -56 0 -20
-9 -16 -97 40 -398 250 -893 417 -1388 468 -142 14 -479 14 -620 0 -558 -58
-1130 -269 -1533 -565 l-61 -45 -76 42 -76 42 28 23 c15 12 73 53 128 91 457
311 984 505 1540 566 166 18 539 18 708 0z m983 -71 c-10 -27 -15 -32 -15 -17
-1 27 20 82 25 67 3 -5 -2 -28 -10 -50z m172 -30 c-12 -37 -12 -38 -16 -11 -2
16 2 35 9 43 18 22 20 12 7 -32z m-4238 -200 c-10 -26 -40 -62 -40 -47 0 10
38 73 45 73 2 0 0 -12 -5 -26z m120 16 c0 -5 -5 -10 -11 -10 -5 0 -7 5 -4 10
3 6 8 10 11 10 2 0 4 -4 4 -10z m2865 -30 c334 -28 660 -110 973 -245 163 -71
349 -172 390 -212 18 -18 42 -33 52 -33 32 0 23 -16 -21 -36 -61 -27 -88 -74
-95 -164 -3 -40 -9 -81 -15 -91 -5 -10 -9 -26 -9 -37 0 -18 -46 -70 -54 -61
-2 2 -16 36 -31 74 -97 258 -297 471 -570 608 -205 102 -309 127 -531 127
-168 0 -327 -19 -514 -61 -485 -111 -1065 -367 -1251 -554 -47 -47 -63 -85
-126 -302 -18 -63 -33 -82 -33 -42 0 11 -16 39 -35 62 -45 52 -75 147 -75 237
0 73 -13 121 -42 160 -19 24 -19 24 3 41 13 9 67 44 120 78 553 345 1214 505
1864 451z m-2954 -53 c-10 -9 -11 -8 -5 6 3 10 9 15 12 12 3 -3 0 -11 -7 -18z
m10 -40 c-25 -39 -27 -30 -4 18 10 20 19 32 21 26 2 -6 -6 -26 -17 -44z m5329
-16 c-11 -21 -30 -37 -30 -25 0 8 30 44 37 44 2 0 -1 -9 -7 -19z m-350 -22
c14 -26 7 -35 -10 -14 -7 8 -23 15 -37 15 -14 0 -21 4 -18 10 11 18 54 11 65
-11z m-1797 -45 c354 -59 643 -286 825 -650 65 -128 122 -284 275 -749 183
-555 332 -1043 423 -1382 14 -56 30 -100 34 -98 4 3 29 38 54 79 l47 75 -17
58 c-9 32 -20 62 -24 67 -5 4 -20 -10 -35 -33 -15 -22 -29 -41 -31 -41 -3 0 9
27 26 60 16 33 30 62 30 65 0 13 -29 3 -45 -15 -26 -29 -29 -18 -6 21 28 46
26 57 -4 29 -31 -29 -32 -21 -4 28 l22 38 -66 184 c-36 102 -104 309 -151 460
-47 151 -113 356 -146 455 l-60 180 87 87 c60 61 95 88 111 88 13 0 39 12 57
26 55 42 116 55 245 53 92 -2 122 1 148 15 42 22 43 21 148 -116 223 -291 405
-651 508 -1006 93 -318 133 -672 115 -1006 -7 -140 -35 -385 -44 -394 -2 -3
-129 37 -282 87 -153 50 -297 96 -321 101 -28 7 -57 25 -83 51 -42 42 -119
189 -119 228 0 11 -5 21 -11 21 -6 0 -9 6 -6 14 3 8 2 29 -3 48 -5 18 -14 52
-20 76 l-11 43 -55 -76 -54 -77 34 -141 c115 -473 120 -647 36 -1217 -43 -293
-62 -388 -72 -365 -4 11 -94 303 -198 649 -172 570 -214 701 -196 611 9 -48
54 -455 71 -645 26 -302 22 -382 -39 -735 -19 -110 -42 -260 -52 -332 -10 -73
-21 -133 -24 -133 -4 0 -46 240 -94 533 -48 292 -91 550 -95 572 l-9 40 -1
-38 c-3 -123 -73 -445 -133 -616 -29 -84 -128 -295 -134 -288 -2 2 -8 50 -14
108 -19 191 -21 189 -50 -52 l-27 -227 -48 -81 c-26 -45 -49 -80 -52 -78 -2 2
14 112 36 243 107 645 159 1107 168 1514 6 276 -1 370 -42 575 -52 260 -116
443 -288 820 -52 116 -116 266 -141 335 -94 251 -199 431 -386 664 -175 218
-462 493 -702 673 -49 36 -88 67 -88 69 0 2 25 60 55 130 30 70 55 132 55 136
0 5 -73 -71 -162 -168 -160 -174 -164 -177 -261 -225 -193 -97 -320 -196 -369
-286 -82 -152 -213 -649 -273 -1043 -78 -507 -85 -1393 -14 -1890 29 -206 165
-494 405 -855 l92 -140 7 -103 8 -102 -29 10 c-148 57 -256 159 -404 381 -56
85 -104 156 -106 158 -15 15 36 -121 76 -204 66 -137 163 -279 533 -779 174
-236 315 -431 313 -433 -8 -8 -329 91 -351 109 -13 10 -80 88 -150 173 -117
144 -158 187 -123 132 41 -64 148 -247 155 -263 19 -51 -251 207 -381 364 -20
24 -36 40 -36 34 0 -5 54 -154 120 -332 67 -178 119 -327 117 -333 -4 -14
-227 202 -297 288 -190 233 -344 540 -411 824 -44 184 -64 453 -77 1029 l-7
314 -140 -299 -140 -298 -8 55 c-5 30 -27 129 -49 220 -47 195 -58 291 -47
401 22 224 71 343 271 664 201 325 228 385 309 695 130 504 356 1184 478 1442
18 37 52 88 76 113 53 54 178 136 301 198 215 108 721 287 911 323 184 34 359
37 536 8z m1615 -58 c3 -13 -3 -12 -31 6 -21 14 -30 26 -23 30 14 9 50 -14 54
-36z m627 24 c35 -39 -8 -99 -59 -80 -16 6 -97 -66 -447 -402 -358 -342 -426
-412 -421 -430 4 -18 2 -20 -18 -15 -19 5 -36 -7 -95 -64 -39 -38 -74 -69 -77
-69 -3 0 29 33 70 74 66 64 74 76 63 90 -7 9 -18 16 -23 16 -5 0 -40 -28 -76
-62 l-67 -62 68 70 c67 70 68 70 48 88 -20 18 -22 18 -78 -28 l-58 -48 54 51
c36 34 52 55 48 66 -13 33 -38 28 -85 -16 l-47 -44 48 51 c48 50 48 50 27 69
-20 18 -21 18 -58 -16 l-37 -34 38 41 c36 39 37 41 19 57 -17 16 -20 16 -42
-8 -13 -14 -28 -25 -33 -25 -4 0 5 12 22 26 17 14 29 29 26 34 -6 9 16 29 30
27 5 -1 41 27 81 63 50 45 71 70 67 83 -7 28 7 58 34 68 32 12 61 -4 69 -37
l7 -26 37 37 c26 25 36 43 33 56 -7 24 23 59 50 59 27 0 57 -28 57 -54 0 -17
7 -13 45 24 24 24 42 47 39 52 -10 16 6 57 26 68 29 16 60 3 74 -30 l11 -28
43 39 c24 23 42 49 42 61 0 26 27 58 50 58 20 0 46 -27 51 -53 4 -15 9 -14 41
13 32 27 36 34 31 64 -4 29 -1 37 20 51 45 29 97 -8 81 -58 -5 -17 5 -12 40
22 36 36 44 49 40 68 -8 29 20 63 51 63 12 0 30 -9 40 -20z m-5291 -29 c10
-11 16 -31 14 -45 -3 -22 49 -69 447 -405 307 -260 455 -379 469 -378 13 1 20
-3 18 -12 -1 -7 3 -19 9 -27 8 -9 8 -14 1 -14 -6 0 -14 5 -17 11 -5 6 -13 2
-22 -11 -14 -20 -13 -24 8 -48 l24 -26 -30 23 -30 22 -18 -23 c-19 -23 -19
-23 19 -55 20 -18 35 -35 32 -38 -2 -3 -17 9 -33 25 -33 34 -47 37 -66 14 -12
-15 -8 -22 35 -60 26 -24 44 -44 39 -44 -5 0 -20 12 -34 26 -44 48 -57 49 -95
13 -19 -18 -34 -38 -34 -44 0 -6 29 -35 65 -65 35 -30 65 -59 65 -63 0 -5 -30
19 -66 52 -37 34 -75 61 -85 61 -11 0 -19 7 -19 18 0 9 -35 46 -76 82 -65 55
-81 64 -109 61 -27 -2 -37 3 -50 23 -16 24 -16 28 -1 51 9 14 23 25 31 25 24
0 18 13 -19 43 -21 16 -47 27 -65 27 -34 0 -61 22 -61 50 0 22 26 50 46 50 21
0 18 6 -23 45 -29 27 -44 34 -64 31 -36 -7 -69 19 -69 53 0 32 16 51 45 51 36
1 -64 80 -101 80 -32 0 -46 10 -57 43 -5 13 2 27 23 47 l30 28 -31 27 c-25 20
-38 25 -61 20 -37 -9 -68 17 -68 56 0 32 30 54 64 46 14 -4 6 8 -28 38 -42 37
-52 42 -71 33 -48 -22 -90 32 -61 77 20 30 56 33 80 6z m4464 -63 c7 -7 12
-18 12 -26 0 -10 -3 -10 -16 2 -8 9 -24 16 -35 16 -11 0 -17 5 -14 10 8 14 38
13 53 -2z m-4029 -27 c12 -8 13 -12 1 -25 -15 -19 -23 -14 -25 14 -2 22 3 24
24 11z m-718 -11 c30 -16 23 -25 -21 -25 -43 0 -50 8 -22 24 21 13 20 13 43 1z
m4569 -61 c14 -26 7 -35 -10 -14 -7 8 -18 15 -26 15 -7 0 -16 5 -19 10 -3 6 5
10 19 10 15 0 30 -8 36 -21z m152 -11 c-6 -6 -16 -7 -22 -3 -9 6 -9 9 1 16 17
10 34 0 21 -13z m-4594 -110 c8 -10 1 -13 -33 -13 -34 0 -41 3 -33 13 6 6 21
12 33 12 12 0 27 -6 33 -12z m815 -153 c-7 -60 -7 -60 -14 -20 -4 22 -2 50 4
62 15 33 17 25 10 -42z m-703 -26 c11 -19 10 -20 -10 -9 -11 6 -30 8 -40 5
-22 -7 -28 10 -7 18 26 11 47 6 57 -14z m4930 -5 c0 -9 5 -12 11 -8 16 10 3
-43 -19 -77 -9 -14 -28 -42 -41 -63 -30 -47 -38 -40 -18 16 9 24 19 61 22 83
4 22 11 48 16 58 11 20 29 14 29 -9z m-2806 -8 c149 -54 230 -122 503 -425
364 -402 435 -507 605 -889 176 -397 351 -882 403 -1117 44 -197 92 -785 81
-990 -9 -184 -30 -244 -143 -415 -38 -58 -73 -112 -78 -120 -5 -8 9 -1 30 16
75 58 70 47 -13 -31 -45 -42 -90 -91 -98 -108 -9 -16 -19 -25 -23 -20 -3 6
-98 -75 -210 -179 -175 -162 -327 -286 -338 -274 -2 2 8 49 21 105 49 202 65
577 33 756 -62 337 -156 462 -347 459 -161 -3 -399 -78 -409 -129 -5 -25 40
-156 56 -162 6 -2 28 7 50 21 116 77 255 74 335 -6 69 -69 171 -311 198 -468
6 -40 10 -173 8 -339 l-3 -274 -77 -28 c-106 -39 -227 -54 -319 -40 -86 14
-123 30 -68 31 55 0 187 37 254 70 33 16 83 50 110 76 l50 46 -75 -42 c-124
-68 -175 -90 -247 -105 -228 -48 -379 25 -586 283 l-95 118 8 170 c9 176 13
202 49 271 25 50 47 67 118 89 61 19 103 61 103 103 0 36 -21 144 -30 154 -9
10 -161 -20 -224 -44 -156 -62 -187 -151 -147 -428 12 -80 19 -146 17 -148
-12 -13 -202 318 -246 430 -74 186 -84 289 -67 672 l8 170 -26 -60 c-14 -33
-30 -64 -35 -69 -19 -19 -10 16 25 97 32 74 35 86 29 144 -7 68 -18 75 -27 17
-6 -34 -77 -168 -85 -160 -2 3 15 61 38 131 22 70 39 130 36 133 -6 6 -10 -5
-26 -65 -5 -22 -19 -52 -29 -64 -17 -21 -17 -16 4 46 13 39 29 108 36 155 11
84 10 93 -35 345 -57 327 -76 452 -76 512 0 27 34 194 75 373 158 684 217 843
369 996 47 46 112 99 154 124 74 43 248 110 289 110 12 0 52 -11 87 -24z
m2833 -88 c-3 -8 -6 -5 -6 6 -1 11 2 17 5 13 3 -3 4 -12 1 -19z m-4839 -20
c20 -33 13 -42 -21 -27 -36 17 -77 -10 -77 -50 0 -33 40 -81 68 -81 31 0 55
35 49 70 -8 36 14 42 30 8 9 -20 4 -30 -31 -73 -211 -251 -405 -576 -524 -875
-48 -121 -112 -310 -112 -330 0 -20 51 23 83 69 17 25 65 82 107 126 63 67
100 118 100 140 0 12 -24 1 -87 -40 l-68 -45 45 40 c25 22 63 50 86 62 36 19
48 35 99 137 106 215 305 519 356 544 13 7 26 23 29 36 10 41 24 34 67 -36 41
-66 48 -99 14 -69 -34 31 -91 12 -91 -30 0 -14 9 -39 21 -55 36 -50 99 -30 99
32 0 39 11 37 35 -7 34 -63 66 -78 190 -86 60 -4 117 -9 126 -10 20 -4 177
-139 178 -154 1 -18 -163 -537 -245 -772 -84 -243 -162 -410 -317 -688 -58
-104 -120 -219 -137 -255 -30 -66 -32 -67 -103 -97 -40 -16 -126 -46 -192 -67
-66 -20 -162 -50 -214 -66 -66 -20 -97 -26 -101 -18 -30 48 -40 571 -15 783
13 112 55 344 71 398 4 13 1 16 -11 12 -18 -7 -12 13 30 95 14 28 36 84 49
125 20 64 21 74 7 67 -40 -22 -103 -87 -122 -125 -12 -22 -43 -66 -70 -97 -43
-51 -51 -66 -69 -148 -11 -50 -20 -99 -20 -108 0 -10 21 13 47 50 25 37 48 65
51 63 5 -6 -13 -40 -67 -121 -42 -64 -46 -77 -58 -170 -31 -247 -26 -630 11
-843 l12 -72 -70 -44 c-48 -30 -73 -41 -77 -33 -12 23 -40 244 -50 402 -12
178 -5 430 17 605 7 63 14 119 14 124 0 6 -16 -5 -35 -24 -41 -39 -42 -37 -15
24 19 46 15 55 -21 36 -38 -21 -18 9 41 61 50 45 61 60 70 101 13 63 13 61
-11 48 -18 -10 -19 -10 -10 8 5 10 17 24 25 31 9 8 25 45 37 85 113 391 249
684 470 1011 93 138 268 357 282 352 5 -1 16 -15 25 -29z m5092 -69 c161 -196
316 -433 421 -646 30 -59 55 -110 56 -112 1 -2 12 7 23 20 l21 24 -6 -63 c-7
-72 7 -77 26 -12 14 45 31 54 24 13 -23 -123 -22 -135 13 -233 19 -52 53 -161
76 -243 l43 -147 18 42 19 43 4 -47 c1 -25 -1 -77 -6 -115 -7 -48 -6 -90 4
-143 40 -231 53 -674 26 -895 -16 -132 -43 -297 -51 -311 -4 -7 -31 1 -77 22
l-71 33 18 113 c35 221 50 579 30 713 l-8 50 -23 -53 c-12 -29 -25 -51 -27
-48 -2 2 7 53 21 114 l25 111 -19 121 c-23 138 -59 298 -96 420 -26 87 -44
121 -44 84 0 -11 -11 -51 -24 -90 l-25 -69 5 65 c3 46 2 59 -5 45 -14 -29 -13
-12 4 93 l15 93 -35 85 c-113 273 -278 550 -469 787 l-78 98 43 64 c24 36 46
65 49 65 3 0 39 -41 80 -91z m-5103 16 c1 -5 -15 -10 -37 -10 -32 -1 -37 2
-28 13 13 15 60 13 65 -3z m119 -187 c5 -8 2 -9 -10 -5 -10 4 -30 7 -44 7 -26
1 -26 1 -8 15 19 15 47 7 62 -17z m100 -170 c10 -12 13 -18 5 -13 -8 4 -27 8
-42 7 -29 -1 -39 12 -16 21 23 10 34 7 53 -15z m5399 -114 c-22 -53 -29 -36
-8 21 10 26 19 40 21 32 2 -8 -4 -32 -13 -53z m-4840 -11 c26 -24 44 -43 39
-43 -5 1 -34 24 -64 52 -65 60 -45 52 25 -9z m4784 3 c-9 -8 -10 -7 -5 7 3 10
7 24 7 30 1 7 3 4 6 -7 3 -10 -1 -23 -8 -30z m28 -168 c-3 -7 -5 -2 -5 12 0
14 2 19 5 13 2 -7 2 -19 0 -25z m-6868 -727 c-6 -18 -14 -30 -17 -27 -2 3 1
19 8 36 16 40 23 33 9 -9z m7456 -31 c-4 -12 -9 -19 -12 -17 -3 3 -2 15 2 27
4 12 9 19 12 17 3 -3 2 -15 -2 -27z m-7559 -134 c-4 -19 -12 -38 -18 -42 -7
-5 -9 5 -3 32 4 21 9 43 12 47 10 17 15 -3 9 -37z m7550 -122 c-18 -53 -22
-125 -5 -89 7 16 8 13 4 -12 -2 -18 -3 -33 0 -33 2 0 15 19 29 43 14 23 26 38
26 34 0 -11 -55 -118 -73 -142 -15 -19 -15 -17 -11 25 5 42 4 44 -10 26 -9
-11 -16 -16 -16 -12 0 4 -11 -6 -24 -21 l-25 -28 3 35 c2 19 6 46 10 60 3 14
-5 1 -18 -27 -14 -29 -27 -53 -30 -53 -3 0 4 26 14 58 16 46 17 53 4 37 -15
-19 -16 -18 -10 15 6 30 5 33 -6 16 -7 -10 -21 -28 -31 -40 -18 -20 -18 -20
-2 12 8 17 12 32 8 32 -4 0 10 18 32 40 21 21 42 37 46 34 4 -2 13 4 19 13 11
18 10 7 -5 -30 -5 -13 -3 -16 8 -11 10 3 17 -1 19 -13 2 -12 11 0 26 35 28 65
41 62 18 -4z m-1586 -363 c0 -5 -9 -19 -20 -32 l-21 -24 16 33 c15 31 25 41
25 23z m70 -246 c-7 -8 -18 -15 -24 -15 -6 0 -2 7 8 15 25 19 32 19 16 0z
m1414 -112 c-7 -29 -34 -75 -34 -58 0 6 5 27 11 48 11 42 33 52 23 10z m-4920
-225 c-10 -18 -19 -27 -22 -20 -4 14 26 67 35 59 2 -3 -3 -20 -13 -39z m-2218
-105 c-11 -11 -19 6 -11 24 8 17 8 17 12 0 3 -10 2 -21 -1 -24z m7090 0 c-11
-11 -17 4 -9 23 7 18 8 18 11 1 2 -10 1 -21 -2 -24z m-7236 -10 c0 -14 3 -14
20 2 19 18 20 17 20 -2 0 -11 -7 -26 -15 -33 -8 -7 -15 -20 -14 -29 0 -10 2
-11 6 -3 2 6 9 12 14 12 6 0 -1 -15 -15 -33 -15 -19 -26 -46 -26 -60 0 -14
-11 -39 -25 -54 -29 -33 -33 -17 -6 29 10 18 22 51 25 73 4 22 9 48 12 58 11
36 -12 14 -35 -33 -35 -72 -39 -52 -6 30 26 64 45 82 45 43z m7252 -45 c-7 -7
-12 -8 -12 -2 0 14 12 26 19 19 2 -3 -1 -11 -7 -17z m-7065 -20 c-3 -8 -6 -5
-6 6 -1 11 2 17 5 13 3 -3 4 -12 1 -19z m-485 -70 c-7 -7 -12 -8 -12 -2 0 14
12 26 19 19 2 -3 -1 -11 -7 -17z m328 0 c0 -16 -3 -19 -11 -11 -6 6 -8 16 -5
22 11 17 16 13 16 -11z m6215 -114 c-8 -20 -18 -35 -21 -31 -3 3 0 15 6 27 6
12 9 29 5 37 -3 9 0 32 7 52 l13 36 3 -42 c2 -22 -4 -58 -13 -79z m-34 74
c-23 -59 -51 -118 -55 -118 -3 0 4 21 15 48 12 26 25 57 30 70 5 12 11 22 14
22 2 0 1 -10 -4 -22z m-6279 -10 c-7 -7 -12 -8 -12 -2 0 14 12 26 19 19 2 -3
-1 -11 -7 -17z m7338 -118 c-13 -24 -22 -26 -13 -3 4 10 2 14 -4 10 -6 -4 -13
-1 -16 7 -8 20 3 27 24 15 15 -8 17 -14 9 -29z m-493 -17 c53 -35 69 -120 33
-178 -37 -59 -127 -79 -184 -39 -112 78 -42 259 93 238 19 -3 45 -13 58 -21z
m-601 -69 c-4 -9 -9 -15 -11 -12 -3 3 -3 13 1 22 4 9 9 15 11 12 3 -3 3 -13
-1 -22z m217 -8 c18 -7 45 -28 60 -45 51 -61 28 -159 -46 -194 -43 -21 -67
-21 -112 -3 -66 28 -95 119 -59 187 9 18 32 38 57 50 51 22 58 23 100 5z
m-302 -483 c13 -16 12 -17 -3 -4 -17 13 -22 21 -14 21 2 0 10 -8 17 -17z m49
-38 c13 -14 21 -25 18 -25 -2 0 -15 11 -28 25 -13 14 -21 25 -18 25 2 0 15
-11 28 -25z m-1467 -303 l-9 -23 -21 23 -22 23 27 35 27 35 3 -35 c2 -20 -1
-46 -5 -58z m-1779 -343 c46 -59 47 -61 21 -55 -15 4 -40 10 -56 13 -27 5 -29
9 -29 54 0 27 4 49 8 49 5 0 30 -28 56 -61z m-387 -696 c-10 -9 -46 13 -56 33
-17 38 -14 38 24 3 19 -18 33 -34 32 -36z m-262 -200 l70 -75 -104 52 -103 51
23 25 c12 13 27 23 33 23 6 -1 43 -35 81 -76z m4151 -75 c-18 -26 -22 -17 -5
14 6 11 13 17 16 15 3 -3 -2 -16 -11 -29z m-5266 7 c0 -8 -4 -15 -10 -15 -5 0
-7 7 -4 15 4 8 8 15 10 15 2 0 4 -7 4 -15z m5213 -26 c-10 -16 -29 -40 -42
-52 l-24 -22 18 30 c19 31 56 75 62 75 2 0 -4 -14 -14 -31z m42 -60 c-9 -17
-19 -28 -22 -25 -6 6 23 56 32 56 3 0 -2 -14 -10 -31z"/>
<path d="M5726 7838 c85 -93 206 -247 283 -362 359 -536 570 -1164 706 -2096
57 -394 87 -550 106 -550 31 0 -17 344 -121 870 -126 637 -257 1048 -460 1449
-132 260 -278 468 -459 654 -104 107 -147 134 -55 35z"/>
<path d="M6441 7794 c122 -127 158 -175 228 -304 28 -52 51 -92 51 -89 0 11
-52 134 -85 199 -40 80 -87 137 -172 211 -121 104 -132 96 -22 -17z"/>
<path d="M6503 6953 c3 -10 38 -94 77 -188 179 -423 315 -932 375 -1400 19
-149 42 -441 51 -643 5 -99 10 -150 17 -143 15 15 21 391 8 541 -42 474 -167
1025 -326 1430 -44 112 -191 420 -201 420 -3 0 -4 -8 -1 -17z"/>
<path d="M4010 6876 c-27 -64 -45 -138 -70 -286 -11 -69 -32 -181 -45 -250
-42 -218 -108 -687 -150 -1070 -19 -166 -31 -605 -20 -706 14 -125 24 -37 35
284 17 537 65 970 164 1481 19 97 44 232 56 301 12 69 30 160 42 203 24 90 18
111 -12 43z"/>
<path d="M6762 6730 c3 -8 33 -82 66 -165 119 -298 172 -481 222 -765 45 -260
74 -380 91 -380 14 0 11 110 -6 226 -17 112 -81 381 -139 582 -42 145 -110
314 -166 414 -40 71 -80 123 -68 88z"/>
<path d="M3851 5408 c-32 -158 -36 -214 -35 -483 0 -223 5 -319 23 -470 37
-316 61 -445 83 -445 13 0 6 125 -16 275 -41 271 -51 418 -50 725 0 168 5 336
11 373 11 81 -1 100 -16 25z"/>
<path d="M8230 8158 c-33 -17 -34 -18 -9 -18 15 0 32 7 39 15 19 22 10 23 -30
3z"/>
<path d="M8053 8076 c-13 -6 -23 -14 -23 -18 0 -15 27 -8 45 12 20 22 13 24
-22 6z"/>
<path d="M8074 8049 c-4 -7 -20 -9 -40 -6 -31 5 -45 -6 -388 -335 -196 -187
-356 -344 -356 -348 0 -11 28 -32 38 -28 5 1 148 136 318 299 170 162 341 325
379 362 39 36 67 67 63 67 -4 0 -10 -5 -14 -11z"/>
<path d="M7875 7982 c-25 -13 -27 -17 -11 -20 10 -2 25 3 34 12 23 23 12 27
-23 8z"/>
<path d="M7578 7739 c-134 -127 -264 -252 -290 -278 l-47 -46 18 -24 19 -25
302 289 c171 165 296 291 288 294 -7 2 -21 8 -30 12 -13 7 -66 -38 -260 -222z"/>
<path d="M7685 7892 c-25 -13 -27 -17 -11 -20 10 -2 25 3 34 12 23 23 12 27
-23 8z"/>
<path d="M7455 7709 c-93 -88 -190 -180 -215 -204 -44 -45 -44 -45 -25 -64 20
-19 21 -18 130 86 61 57 163 155 228 216 108 102 117 112 95 118 -12 4 -27 7
-33 8 -5 0 -86 -72 -180 -160z"/>
<path d="M7510 7805 c-7 -8 -19 -15 -26 -15 -8 0 -14 -4 -14 -10 0 -5 6 -10
13 -10 16 0 53 38 45 45 -3 3 -11 -1 -18 -10z"/>
<path d="M7294 7644 l-145 -137 20 -20 20 -20 151 143 c82 79 149 144 148 145
-2 1 -13 8 -26 14 -20 11 -33 2 -168 -125z"/>
<path d="M7315 7709 c-26 -17 -27 -19 -9 -19 12 0 27 7 34 15 19 23 9 25 -25
4z"/>
<path d="M7188 7623 c-40 -37 -71 -72 -70 -78 7 -22 21 -27 41 -13 27 19 153
140 149 143 -2 1 -13 6 -25 9 -18 6 -36 -5 -95 -61z"/>
<path d="M2942 8129 c-23 -12 -28 -18 -18 -22 14 -6 66 27 56 35 -3 2 -20 -4
-38 -13z"/>
<path d="M3089 7977 c3 -42 5 -43 380 -359 373 -314 376 -317 396 -298 12 12
16 23 10 28 -6 5 -174 148 -375 317 -201 169 -376 318 -390 331 l-25 23 4 -42z"/>
<path d="M3045 7959 c-26 -17 -27 -19 -9 -19 12 0 27 7 34 15 19 23 9 25 -25
4z"/>
<path d="M3197 7798 c-4 -24 0 -37 12 -48 9 -8 146 -125 305 -259 l288 -244
21 22 c13 13 18 24 12 29 -18 16 -600 507 -616 520 -15 11 -17 8 -22 -20z"/>
<path d="M3155 7792 c-25 -13 -27 -17 -11 -20 10 -2 25 3 34 12 23 23 12 27
-23 8z"/>
<path d="M3308 7619 c-4 -28 6 -40 201 -207 278 -239 249 -218 266 -196 8 11
15 21 15 24 0 5 -361 315 -450 387 l-28 23 -4 -31z"/>
<path d="M3265 7609 c-26 -17 -27 -19 -9 -19 12 0 27 7 34 15 19 23 9 25 -25
4z"/>
<path d="M3426 7434 c-4 -15 -3 -30 1 -34 4 -5 71 -62 148 -129 l139 -121 20
20 c18 17 19 22 6 33 -48 44 -300 257 -303 257 -3 0 -8 -12 -11 -26z"/>
<path d="M3375 7429 c-27 -17 -28 -19 -8 -19 12 0 29 7 37 16 31 30 16 32 -29
3z"/>
<path d="M3528 7265 c-4 -20 6 -33 56 -77 96 -84 94 -82 111 -68 9 7 14 16 13
20 -4 9 -164 150 -171 150 -2 0 -7 -11 -9 -25z"/>
<path d="M3485 7259 c-26 -17 -27 -19 -9 -19 12 0 27 7 34 15 19 23 9 25 -25
4z"/>
<path d="M5050 6805 c-30 -7 -98 -14 -150 -15 -52 -1 -115 -5 -140 -9 -38 -6
-27 -8 65 -13 93 -4 124 -1 204 18 52 13 96 26 99 29 7 7 -14 4 -78 -10z"/>
<path d="M5285 6745 c-39 -7 -111 -24 -160 -38 -193 -54 -229 -57 -409 -40
-99 9 -157 11 -175 4 -20 -7 -4 -10 69 -10 52 -1 138 -8 190 -16 72 -11 110
-12 160 -4 54 8 433 101 465 114 23 9 -76 2 -140 -10z"/>
<path d="M5511 6360 c-72 -82 -82 -86 -57 -25 8 19 12 35 9 35 -3 0 -28 -16
-54 -35 -27 -19 -49 -33 -49 -30 0 2 11 29 24 60 14 30 24 55 22 55 -2 0 -76
-85 -154 -179 -12 -14 -13 -11 -8 19 l5 35 -29 -34 c-16 -19 -44 -70 -61 -115
l-33 -80 -10 34 -9 35 -13 -40 c-14 -45 -17 -140 -5 -200 7 -39 8 -40 19 -15
6 14 20 54 31 90 l21 65 -6 -50 -5 -50 30 35 c17 19 49 70 71 113 40 76 59
101 40 51 -20 -51 -12 -56 35 -20 25 19 87 56 138 82 50 26 101 59 112 73 11
14 30 37 43 51 l23 25 -16 -33 c-9 -19 -14 -36 -11 -39 2 -3 53 12 113 32 59
21 115 39 123 42 13 4 13 5 0 13 -23 15 -93 11 -114 -5 -33 -25 -37 -17 -17
35 11 27 16 48 13 46 -4 -3 -45 -30 -91 -60 -47 -31 -88 -56 -93 -56 -8 0 -4
13 26 83 9 20 14 37 12 37 -3 0 -37 -36 -75 -80z"/>
<path d="M4210 6415 c0 -17 38 -61 50 -58 9 3 6 -4 -7 -15 -26 -23 -30 -34 -8
-26 21 9 42 -40 26 -60 -11 -13 -9 -21 8 -45 l21 -30 -31 9 c-22 7 -41 5 -65
-5 -43 -18 -44 -35 -1 -35 17 0 69 -9 115 -20 46 -11 86 -20 88 -20 3 0 -4 17
-16 38 l-22 37 44 -46 c24 -26 59 -54 78 -64 19 -10 52 -31 73 -47 l37 -30 1
34 c1 31 2 30 16 -17 21 -73 31 -97 54 -125 l20 -25 -6 135 c-4 74 -12 140
-17 145 -7 7 -9 -3 -5 -30 5 -35 4 -38 -7 -22 -7 9 -22 43 -32 75 -15 45 -19
52 -22 32 -4 -23 -9 -20 -68 45 -62 67 -64 68 -49 31 23 -58 19 -60 -26 -11
-23 25 -44 44 -46 41 -2 -2 5 -22 16 -45 12 -22 21 -43 21 -47 0 -3 -23 15
-51 40 -54 48 -69 53 -49 16 13 -25 5 -39 -12 -22 -7 7 -20 12 -29 12 -12 0
-16 6 -12 19 3 10 0 28 -6 38 -7 14 -7 23 0 30 7 7 -2 20 -28 42 -35 29 -53
38 -53 26z"/>
<path d="M4957 6313 c-3 -21 -9 -67 -12 -103 -4 -53 -3 -60 6 -40 6 14 13 60
16 103 6 80 0 104 -10 40z"/>
<path d="M4800 6316 c0 -27 38 -156 46 -156 7 0 -4 62 -23 128 -16 57 -23 66
-23 28z"/>
<path d="M4238 6098 c-2 -15 -11 -24 -24 -26 -17 -2 -25 -14 -33 -49 -7 -25
-10 -48 -7 -50 11 -11 81 48 82 70 1 12 4 34 9 50 5 21 4 27 -8 27 -9 0 -17
-10 -19 -22z"/>
<path d="M6160 6048 c6 -13 19 -61 29 -108 18 -79 19 -82 20 -38 1 46 -31 152
-50 163 -5 4 -5 -4 1 -17z"/>
<path d="M5615 6026 c-60 -28 -87 -56 -114 -116 -53 -116 -1 -254 115 -310 89
-43 208 -13 271 68 90 119 55 286 -76 354 -67 35 -127 37 -196 4z m198 -64
c31 -32 37 -93 12 -128 -53 -76 -175 -38 -175 55 0 60 39 101 94 101 33 0 48
-6 69 -28z"/>
<path d="M4882 5945 c-28 -132 -43 -229 -62 -415 -27 -256 -32 -282 -80 -394
-22 -52 -47 -121 -55 -153 -32 -122 -11 -248 50 -302 35 -31 117 -61 165 -61
50 0 115 30 184 86 76 61 103 66 98 19 l-2 -30 30 33 c19 20 30 43 30 61 0 38
-44 81 -81 81 -32 0 -69 -31 -69 -57 0 -30 -37 -81 -71 -99 -21 -10 -56 -16
-95 -16 -120 0 -194 73 -194 192 0 35 14 95 40 175 31 97 45 163 64 316 59
465 81 718 48 564z"/>
<path d="M4334 5921 c-22 -10 -56 -37 -76 -60 -95 -111 -68 -279 56 -356 42
-26 59 -30 115 -30 73 1 110 16 158 64 48 47 67 98 67 171 0 100 -51 179 -141
217 -46 19 -131 16 -179 -6z m176 -46 c37 -19 50 -43 50 -93 0 -89 -102 -127
-162 -61 -47 49 -34 124 27 157 28 16 51 15 85 -3z"/>
<path d="M5706 5300 c-144 -30 -134 -43 29 -37 143 5 291 35 251 50 -33 13
-191 6 -280 -13z"/>
<path d="M4349 5239 c41 -16 164 -29 196 -21 30 8 30 8 -17 20 -59 15 -215 16
-179 1z"/>
<path d="M5181 4991 c-10 -7 -6 -10 15 -15 48 -11 134 -65 144 -91 5 -13 10
-44 11 -69 2 -25 6 -46 9 -46 11 0 40 70 40 97 0 67 -163 160 -219 124z"/>
<path d="M5640 4677 c0 -3 22 -19 49 -36 89 -58 156 -141 188 -236 l13 -40 -4
61 c-7 102 -58 178 -151 220 -56 25 -95 38 -95 31z"/>
<path d="M5320 4161 c-47 -26 -113 -66 -147 -88 -55 -36 -141 -68 -269 -102
-23 -6 -45 -18 -48 -26 -6 -17 8 -102 19 -113 3 -4 61 -7 128 -7 185 0 254 32
339 154 50 71 98 231 70 231 -4 0 -46 -22 -92 -49z m40 -71 c-12 -49 -16 -55
-88 -101 -81 -53 -80 -64 2 -24 l51 25 -55 -50 c-68 -63 -149 -92 -262 -92
-90 -1 -110 10 -106 56 3 30 5 31 58 37 107 11 183 46 314 143 50 36 92 64 94
61 2 -2 -1 -27 -8 -55z"/>
<path d="M5069 4114 c-19 -14 -52 -35 -74 -45 -36 -17 -37 -19 -14 -19 26 0
91 40 118 73 19 24 10 21 -30 -9z"/>
<path d="M5348 3899 c-106 -95 -142 -112 -258 -125 -61 -7 -63 -8 -30 -16 61
-14 203 -11 241 5 49 20 98 73 126 134 45 98 28 99 -79 2z"/>
<path d="M5185 3479 c-27 -5 -63 -13 -80 -19 l-30 -10 30 5 c17 3 93 8 170 12
84 3 132 9 120 14 -26 10 -147 9 -210 -2z"/>
<path d="M8493 4460 c-69 -28 -48 -133 27 -133 59 0 91 67 53 111 -22 25 -51
33 -80 22z m9 -32 c-17 -17 -15 -38 5 -60 20 -22 1 -24 -21 -2 -26 25 -14 74
18 74 6 0 5 -5 -2 -12z"/>
<path d="M8120 4350 c-27 -27 -25 -66 6 -96 29 -30 67 -27 97 8 37 44 6 108
-53 108 -17 0 -39 -9 -50 -20z m32 -12 c-17 -17 -15 -38 5 -60 13 -15 14 -18
2 -18 -21 0 -39 21 -39 45 0 22 17 45 34 45 6 0 5 -5 -2 -12z"/>
<path d="M7171 9034 c-12 -9 -46 -19 -74 -23 -28 -3 -52 -11 -54 -16 -4 -14
113 -58 136 -50 33 10 54 92 26 102 -6 2 -21 -4 -34 -13z"/>
<path d="M5928 9023 c7 -3 16 -2 19 1 4 3 -2 6 -13 5 -11 0 -14 -3 -6 -6z"/>
<path d="M1421 4541 c-26 -60 -26 -61 -2 -61 15 0 20 10 25 51 4 28 5 53 3 55
-2 3 -14 -18 -26 -45z"/>
<path d="M3393 4063 c-18 -6 -16 -40 1 -46 8 -3 20 1 27 9 10 12 9 18 -2 28
-8 8 -20 12 -26 9z"/>
<path d="M2862 3832 c-72 -69 -112 -114 -112 -127 0 -12 90 -115 221 -255 166
-176 228 -236 248 -238 21 -2 47 17 139 103 62 60 112 115 112 125 0 10 -29
49 -64 86 l-65 69 -77 -76 c-72 -73 -76 -78 -62 -98 14 -20 17 -19 99 55 l84
76 -77 -76 c-43 -42 -78 -79 -78 -83 0 -4 12 -19 26 -35 26 -26 26 -28 11 -52
-23 -34 -55 -43 -77 -20 -9 11 -88 96 -175 189 -88 94 -170 182 -183 196 -20
22 -22 31 -13 48 19 35 49 45 77 26 25 -16 26 -15 105 56 l80 72 -32 34 c-18
18 -42 33 -53 33 -13 -1 -67 -45 -134 -108z"/>
<path d="M8129 3908 c-8 -7 -27 -28 -43 -45 l-30 -33 25 -27 24 -28 -26 23
-26 22 -18 -20 c-18 -19 -18 -21 1 -42 19 -23 19 -23 -2 -5 -27 22 -30 22 -51
-9 l-17 -27 55 -51 c30 -28 43 -42 29 -31 -14 11 -40 33 -58 50 l-34 30 -29
-35 -29 -34 33 -36 c32 -35 32 -35 1 -7 -16 15 -34 27 -40 27 -5 0 -41 -37
-79 -82 -102 -120 -115 -138 -107 -157 4 -10 58 -62 120 -115 87 -75 118 -97
137 -94 33 4 445 480 445 514 0 16 -32 50 -117 123 -65 56 -125 101 -134 101
-8 0 -22 -6 -30 -12z m201 -193 c21 -22 22 -26 8 -47 -35 -52 -361 -423 -375
-426 -16 -4 -63 35 -63 52 0 6 21 35 47 65 l47 54 -35 31 c-19 17 -57 51 -84
75 -28 24 -43 40 -35 35 8 -4 47 -36 86 -71 l71 -62 33 34 c30 30 32 36 19 52
-12 16 -12 17 2 6 13 -11 20 -8 44 18 26 27 28 32 16 52 -11 18 -11 20 0 10 7
-7 16 -13 20 -13 4 0 37 36 75 80 37 44 75 80 84 80 9 0 27 -11 40 -25z m-239
-2 c13 -16 12 -17 -3 -4 -10 7 -18 15 -18 17 0 8 8 3 21 -13z m-85 -165 l29
-33 -32 29 c-18 17 -33 31 -33 33 0 8 8 1 36 -29z m-116 -165 c0 -3 -27 18
-60 47 -33 29 -60 54 -60 57 0 3 27 -18 60 -47 33 -29 60 -54 60 -57z"/>
<path d="M2997 3787 l-78 -72 28 -28 c16 -15 33 -27 37 -27 10 0 149 129 155
143 4 11 -39 57 -53 57 -6 -1 -46 -33 -89 -73z"/>
<path d="M3066 3718 l-78 -73 34 -32 33 -32 80 73 80 74 -29 31 c-17 17 -33
31 -36 31 -4 0 -42 -33 -84 -72z"/>
<path d="M3135 3645 l-80 -75 32 -31 31 -32 39 31 c21 17 58 51 82 76 l45 46
-29 30 c-16 16 -31 30 -34 30 -3 -1 -42 -35 -86 -75z"/>
<path d="M3206 3573 l-78 -75 26 -27 26 -26 76 77 77 76 -19 26 c-11 14 -21
25 -24 25 -3 0 -40 -34 -84 -76z"/>
<path d="M5866 2295 c-9 -46 -26 -56 -19 -10 l6 36 -84 -3 c-70 -3 -84 -6 -87
-20 -2 -12 1 -16 11 -12 10 3 18 -5 26 -28 l12 -33 16 29 c14 26 16 28 25 11
6 -9 8 -37 5 -61 l-5 -44 54 0 53 0 11 58 c6 31 13 69 16 85 5 22 2 27 -14 27
-15 0 -21 -9 -26 -35z"/>
<path d="M7991 2271 c-15 -4 -27 -17 -32 -34 -6 -23 -5 -25 9 -18 22 12 68 61
56 60 -5 -1 -20 -4 -33 -8z"/>
<path d="M5686 2234 c-12 -32 -7 -84 9 -84 11 0 15 12 15 44 0 46 -13 68 -24
40z"/>
<path d="M8003 2192 c-8 -5 -6 -14 7 -32 l20 -25 0 33 c0 32 -6 38 -27 24z"/>
<path d="M4211 2011 c-10 -6 -10 -10 -1 -16 13 -8 24 -1 19 14 -3 6 -10 7 -18
2z"/>
<path d="M4607 1538 c-36 -146 -134 -734 -125 -743 11 -12 120 -27 182 -26 41
1 75 -4 83 -11 12 -10 18 -8 32 11 l18 24 6 -22 c4 -17 13 -21 44 -21 56 0 97
30 126 92 33 68 61 207 52 256 -16 88 -49 114 -166 134 -88 15 -103 31 -88 98
10 44 29 78 29 51 0 -9 8 -11 24 -7 12 3 26 2 30 -2 10 -9 129 -31 139 -25 11
6 9 43 -3 43 -5 0 -10 5 -10 10 0 6 7 10 15 10 8 0 15 9 15 19 0 11 3 26 6 34
4 12 -10 17 -68 27 -40 6 -95 19 -123 27 -52 16 -55 16 -144 33 -71 13 -68 14
-74 -12z m341 -159 c-2 -6 -8 -10 -13 -10 -5 0 -11 4 -13 10 -2 6 4 11 13 11
9 0 15 -5 13 -11z m26 -225 c19 -7 22 -44 3 -44 -14 0 -39 35 -30 44 8 7 8 7
27 0z m-169 -60 c29 -31 33 -85 11 -139 -23 -54 -85 -75 -106 -34 -12 22 3
146 22 182 13 25 45 21 73 -9z m15 -243 c0 -6 -4 -13 -10 -16 -5 -3 -10 1 -10
9 0 9 5 16 10 16 6 0 10 -4 10 -9z"/>
<path d="M6389 1549 c-86 -12 -247 -55 -273 -72 -41 -27 -61 -83 -60 -171 1
-70 3 -82 22 -94 12 -8 22 -25 22 -37 0 -24 42 -65 66 -65 10 0 6 -13 -13 -42
-32 -47 -35 -113 -11 -182 11 -29 12 -55 6 -99 -11 -79 -4 -86 67 -63 30 9 59
15 63 12 5 -3 18 1 29 9 18 13 19 20 11 67 -4 29 -9 91 -10 137 -1 71 2 86 17
98 21 15 61 17 69 4 7 -10 36 -140 43 -188 3 -18 11 -38 19 -44 8 -6 14 -20
14 -31 0 -15 4 -18 18 -13 9 5 41 13 70 18 43 9 54 15 59 35 4 17 1 27 -11 34
-22 12 -69 106 -62 124 10 25 24 15 31 -22 7 -42 25 -84 35 -84 7 0 1 36 -81
463 -47 245 -32 222 -140 206z m-49 -195 c6 -14 11 -50 12 -81 3 -57 3 -57
-31 -67 -31 -9 -36 -7 -62 22 -36 41 -39 95 -7 129 30 32 75 31 88 -3z m200
-204 c0 -5 -5 -10 -11 -10 -5 0 -7 5 -4 10 3 6 8 10 11 10 2 0 4 -4 4 -10z
m-24 -77 c-7 -17 -8 -17 -17 0 -12 21 -2 44 13 29 6 -6 8 -19 4 -29z m-66 -68
c0 -8 -4 -15 -9 -15 -5 0 -11 7 -15 15 -3 9 0 15 9 15 8 0 15 -7 15 -15z"/>
<path d="M5750 1466 c-74 -6 -141 -15 -147 -19 -18 -11 -17 -121 1 -136 8 -7
30 -9 57 -5 33 5 48 2 57 -9 7 -8 17 -74 23 -153 15 -209 13 -202 54 -202 28
0 35 4 35 19 0 24 19 25 35 2 19 -26 1 -53 -36 -53 -18 0 -28 -4 -24 -10 11
-17 -5 -32 -21 -19 -17 14 -19 0 -5 -48 6 -20 6 -35 0 -38 -12 -8 -12 -45 1
-45 6 0 10 -8 10 -17 0 -15 -2 -16 -10 -3 -12 19 -13 8 -1 -23 11 -27 8 -27
139 -11 l42 5 -5 57 c-12 128 -27 247 -32 255 -3 5 -11 0 -17 -9 -10 -13 -15
-14 -21 -5 -4 8 3 24 19 40 l27 28 -14 109 c-19 143 -15 154 58 154 l55 0 0
44 c0 24 -3 57 -6 73 -6 29 -7 29 -72 30 -37 0 -128 -5 -202 -11z m152 -418
c-21 -21 -32 -3 -15 22 16 22 18 23 21 6 2 -10 -1 -23 -6 -28z m-107 -38 c-3
-5 -10 -10 -16 -10 -5 0 -9 5 -9 10 0 6 7 10 16 10 8 0 12 -4 9 -10z"/>
<path d="M5137 1194 c-84 -335 -118 -485 -111 -495 6 -11 52 7 89 35 57 43 58
43 50 -3 -6 -39 -5 -41 18 -41 17 0 27 7 31 23 9 34 7 59 -4 52 -11 -7 -13 9
-4 42 4 13 10 21 14 18 5 -3 11 8 15 23 6 28 7 28 68 24 50 -3 66 -8 85 -28
12 -14 22 -33 22 -42 1 -26 36 -63 54 -56 11 4 16 0 16 -14 0 -35 11 -52 35
-52 13 0 26 7 29 16 3 8 11 12 17 9 6 -4 8 -13 5 -21 -3 -8 -1 -14 4 -14 14 0
12 22 -3 45 -8 11 -16 29 -19 40 -3 11 -9 28 -13 38 -5 12 -2 17 9 17 20 0 20
-7 -3 120 -11 58 -36 197 -56 310 -20 113 -38 207 -40 208 -2 2 -57 6 -122 9
l-118 6 -68 -269z m196 49 c3 -21 9 -84 13 -140 l7 -103 -25 0 c-47 0 -53 20
-39 128 15 125 21 152 31 152 4 0 10 -17 13 -37z m-61 -284 c28 -26 30 -29 11
-24 -14 4 -23 2 -23 -5 0 -6 -4 -9 -9 -6 -5 3 -7 15 -4 26 4 14 0 20 -10 20
-9 0 -19 5 -22 10 -14 23 27 8 57 -21z m-46 -33 c7 -30 2 -56 -10 -59 -6 -1
-10 17 -11 41 -1 46 11 57 21 18z m228 -102 c15 -40 -4 -48 -22 -9 -9 20 -9
25 2 25 8 0 17 -7 20 -16z m51 -35 c0 -7 -8 -15 -17 -17 -18 -3 -25 18 -11 32
10 10 28 1 28 -15z m-435 -4 c-7 -9 -15 -13 -17 -11 -7 7 7 26 19 26 6 0 6 -6
-2 -15z m-10 -55 c0 -5 -4 -10 -10 -10 -5 0 -10 5 -10 10 0 6 5 10 10 10 6 0
10 -4 10 -10z m471 -23 c-1 -12 -15 -9 -19 4 -3 6 1 10 8 8 6 -3 11 -8 11 -12z"/>
<path d="M5411 728 c2 -13 0 -29 -4 -35 -6 -9 0 -13 22 -13 l30 0 -20 35 c-24
41 -32 44 -28 13z"/>
<path d="M5125 700 c-3 -5 -1 -10 4 -10 6 0 11 5 11 10 0 6 -2 10 -4 10 -3 0
-8 -4 -11 -10z"/>
</g>
</svg>
